<svg xmlns="http://www.w3.org/2000/svg" width="144" height="144" viewBox="0 0 144 144" class="icon stroked icon-crossplatform icon-compatible"> <path fill="none" stroke="#666" stroke-width="2px" class="long"  d="m 69.28,58.7 -3.37,-9 c 30.97,0 48.49,19.07 48.49,40 0,-31.32 -16.47,-50.86 -48.49,-50.86 l 3.37,-9 C 69.76,28.6 68.19,27.36 67.07,28.48 L 49.15,44.27 67.07,60.04 c 1,1 2.92,0 2.21,-1.34 z m 5.45,26.61 3.38,9 c -30.99,0 -48.54,-19.08 -48.54,-40.02 0,31.33 16.52,50.91 48.54,50.91 l -3.38,9 c -0.47,1.2 1.09,2.5 2.21,1.3 L 94.85,99.74 76.93,83.95 c -1,-1.01 -2.92,0 -2.21,1.36 z" /></svg>
