<?xml version="1.0"?>

<svg width="69.388" xmlns="http://www.w3.org/2000/svg" viewBox="0 0 69.388185 73" height="73">
 <path d="m29.262 65c-1.801 0-4.102-1.2-5.2-2.7l-15.198-19.401c-1.3-1.597-1.101-4.199 0.399-5.597l2.101-2.102c0.7-0.699 1.598-1.097 2.598-1.097 1.101 0 2.101 0.5 2.8 1.296l10.802 13.101c0.597 0.7 1.3 0.602 1.699-0.102l22.8-38.5c0.7-1.199 2-1.898 3.399-1.898 0.7 0 1.402 0.2 2 0.5l2 1.2c1.8 1.1 2.5 3.5 1.402 5.3l-26.602 47c-1 1.7-3.2 3-5 3zm-15.399-28.898c-0.402 0-0.902 0.199-1.203 0.5l-2 2c-0.797 0.796-0.898 2.097-0.2 3l15.102 19.5c0.801 1 2.5 1.898 3.7 1.898 1.101 0 2.601-0.898 3.199-2l26.602-47c0.597-0.898 0.199-2-0.7-2.602l-2-1.199c-0.902-0.5-2.101-0.199-2.601 0.7l-22.899 38.5c-0.601 1-1.601 1.601-2.601 1.601-0.899 0-1.7-0.398-2.399-1.2l-10.703-13.1c-0.297-0.4-0.797-0.598-1.297-0.598z"></path>
</svg>
