<?xml version="1.0"?>

<svg width="73.043" xmlns="http://www.w3.org/2000/svg" viewBox="0 0 73.043 57.115" height="57.115">
 <path d="m64.043 8h-55.043c-0.555 0-1 0.445-1 1v39.113c0 0.555 0.445 1 1 1h55.043c0.555 0 1-0.445 1-1v-39.113c0-0.555-0.445-1-1-1zm-1 39.113h-53.043v-37.113h53.043z"></path>
 <path d="m51.18 24.375h7.136a0.75 0.75 0 0 0 0.75 -0.75v-8.5a0.75 0.75 0 0 0 -0.75 -0.75h-7.136a0.75 0.75 0 0 0 -0.75 0.75v8.5c0 0.414 0.336 0.75 0.75 0.75zm0.75-8.5h5.636v7h-5.636zm-28.457 13.675c0 0.415 0.336 0.75 0.75 0.75h24.047a0.75 0.75 0 0 0 0 -1.5h-24.047a0.75 0.75 0 0 0 -0.75 0.75zm24.797 3.755h-24.047a0.75 0.75 0 0 0 0 1.5h24.047a0.75 0.75 0 0 0 0 -1.5zm-8.086 4.504h-15.961a0.75 0.75 0 0 0 0 1.5h15.96a0.75 0.75 0 0 0 0 -1.5zm-26.586-21.934h15.96a0.75 0.75 0 0 0 0 -1.5h-15.96a0.75 0.75 0 0 0 0 1.5zm0 4.25h15.96a0.75 0.75 0 0 0 0 -1.5h-15.96a0.75 0.75 0 0 0 0 1.5z"></path>
</svg>
