<?xml version="1.0"?>

<svg width="91.067" xmlns="http://www.w3.org/2000/svg" viewBox="0 0 91.066857 102.841546" height="102.84">
 <path d="m65.035 8c-2.59 0.129-5.25 1.867-6.77 4.574a12.69 12.69 0 0 0 -0.933 1.875c-2.527 4.664-4.527 8.395-13.332 14.395-3.863 2.664-6.398 5.199-8.8 7.465-3.868 3.867-6.4 6.402-11.731 6.402h-7.203c-4.532-0.001-8.266 3.734-8.266 8.266v21.199c0 4.535 3.734 8.27 8.266 8.27h7.87c0.395 0.394 1.196 1.464 1.864 2.53 3.2 4.403 8.531 11.864 16.668 11.864h25.332c4.266 0 7.734-3.461 7.734-7.727v-0.668c0-2-0.804-3.734-2-5.066h1.598a7.74 7.74 0 0 0 7.734 -7.734v-0.668a7.887 7.887 0 0 0 -2 -5.2h0.536a7.735 7.735 0 0 0 7.73 -7.73v-0.668c0.137-4.266-3.332-7.734-7.598-7.734h-0.402c1.2-1.333 1.867-3.067 1.867-5.067v-0.668c0-4.265-3.465-7.734-7.73-7.734h-14.137c4.137-4 11.602-12.266 11.2-20.531-0.395-7.47-4.13-9.067-5.727-9.47a5.878 5.878 0 0 0 -1.77 -0.175zm0.34 2.64c0.254-0.003 0.508 0.02 0.762 0.07 2.129 0.532 3.46 3.071 3.726 7.071 0.403 9.063-10.531 18.797-12.531 20.395h-2.398c-4.266 0-7.735 3.469-7.735 7.734v0.668c0 2.664 1.332 4.93 3.332 6.399-2 1.336-3.332 3.734-3.332 6.402v0.668c0 2.664 1.332 5.066 3.469 6.398-2.137 1.332-3.469 3.73-3.469 6.395v0.668c0 2.668 1.332 5.07 3.469 6.402-2 1.336-3.469 3.735-3.469 6.403v0.664c0 1.863 0.664 3.734 1.867 5.07h-6.261c-6.668 0.129-11.473-6.668-14.407-10.668-1.73-2.399-2.535-3.602-3.867-3.602h-8.133c-3.066 0-5.597-2.535-5.597-5.601v-21.2c0-3.066 2.531-5.597 5.597-5.597h7.204c6.398-0.137 9.464-3.203 13.464-7.203 2.266-2.266 4.797-4.664 8.403-7.196 9.199-6.402 11.465-10.53 14.133-15.332 0.265-0.53 0.664-1.203 0.93-1.738 1.167-1.98 3.05-3.25 4.843-3.265zm-10.441 30.2h20.535a5.07 5.07 0 0 1 5.062 5.07v0.668c0 2.8-2.265 5.067-5.062 5.067h-20.535a5.064 5.064 0 0 1 -5.07 -5.067v-0.668a5.071 5.071 0 0 1 5.07 -5.066zm0 13.472h26.8a5.069 5.069 0 0 1 5.07 5.067v0.668a5.071 5.071 0 0 1 -5.07 5.066h-26.8a5.074 5.074 0 0 1 -5.07 -5.066v-0.668a5.069 5.069 0 0 1 5.07 -5.066zm0 13.602h20.535c1.344 0 2.633 0.531 3.582 1.48a5.08 5.08 0 0 1 1.48 3.586v0.665c0 2.8-2.265 5.07-5.062 5.07h-20.535a5.07 5.07 0 0 1 -5.07 -5.07v-0.665c0-2.8 2.269-5.07 5.07-5.066zm0 13.465h13.332a5.06 5.06 0 0 1 5.066 5.066v0.668a5.064 5.064 0 0 1 -1.48 3.582 5.08 5.08 0 0 1 -3.586 1.48h-13.332a5.07 5.07 0 0 1 -5.07 -5.062v-0.668a5.069 5.069 0 0 1 5.07 -5.066z"></path>
</svg>
